<svg id="visual" viewBox="0 0 960 540" width="960" height="540" xmlns="http://www.w3.org/2000/svg" xmlns:xlink="http://www.w3.org/1999/xlink" version="1.1"><path d="M0 310L17.8 287.2C35.7 264.3 71.3 218.7 106.8 199.3C142.3 180 177.7 187 213.2 200C248.7 213 284.3 232 320 230.3C355.7 228.7 391.3 206.3 426.8 215.7C462.3 225 497.7 266 533.2 259.7C568.7 253.3 604.3 199.7 640 203.8C675.7 208 711.3 270 746.8 276.3C782.3 282.7 817.7 233.3 853.2 208C888.7 182.7 924.3 181.3 942.2 180.7L960 180L960 0L942.2 0C924.3 0 888.7 0 853.2 0C817.7 0 782.3 0 746.8 0C711.3 0 675.7 0 640 0C604.3 0 568.7 0 533.2 0C497.7 0 462.3 0 426.8 0C391.3 0 355.7 0 320 0C284.3 0 248.7 0 213.2 0C177.7 0 142.3 0 106.8 0C71.3 0 35.7 0 17.8 0L0 0Z" fill="#1E293B" stroke-linecap="round" stroke-linejoin="miter"></path></svg>