<svg id="visual" viewBox="0 0 960 540" width="960" height="540" xmlns="http://www.w3.org/2000/svg" xmlns:xlink="http://www.w3.org/1999/xlink" version="1.1"><path d="M0 515L9.3 503.5C18.7 492 37.3 469 56.2 458.8C75 448.7 94 451.3 112.8 453.8C131.7 456.3 150.3 458.7 169.2 465.5C188 472.3 207 483.7 225.8 482.7C244.7 481.7 263.3 468.3 282.2 463.8C301 459.3 320 463.7 338.8 466.3C357.7 469 376.3 470 395.2 479.3C414 488.7 433 506.3 451.8 505C470.7 503.7 489.3 483.3 508.2 482.2C527 481 546 499 564.8 507C583.7 515 602.3 513 621.2 511.8C640 510.7 659 510.3 677.8 506.5C696.7 502.7 715.3 495.3 734.2 485.5C753 475.7 772 463.3 790.8 466.7C809.7 470 828.3 489 847.2 501.7C866 514.3 885 520.7 903.8 512.5C922.7 504.3 941.3 481.7 950.7 470.3L960 459L960 541L950.7 541C941.3 541 922.7 541 903.8 541C885 541 866 541 847.2 541C828.3 541 809.7 541 790.8 541C772 541 753 541 734.2 541C715.3 541 696.7 541 677.8 541C659 541 640 541 621.2 541C602.3 541 583.7 541 564.8 541C546 541 527 541 508.2 541C489.3 541 470.7 541 451.8 541C433 541 414 541 395.2 541C376.3 541 357.7 541 338.8 541C320 541 301 541 282.2 541C263.3 541 244.7 541 225.8 541C207 541 188 541 169.2 541C150.3 541 131.7 541 112.8 541C94 541 75 541 56.2 541C37.3 541 18.7 541 9.3 541L0 541Z" fill="#1E293B" stroke-linecap="round" stroke-linejoin="miter"></path></svg>